#!OML:ASF H:\MichaelJackson\Top Level 1\Subject 1\Session 1\male.ASF
:FULLY-SPECIFIED
:DEGREES
585
root 4.8826 16.726 -9.38922 10.4611 9.21985 8.20097
lowerback 2.08944 2.217 -5.50432
upperback 5.2538 3.03276 -0.957665
thorax 4.03849 1.32312 2.12313
lowerneck -10.6356 -6.02469 -0.861258
upperneck 40.3328 -8.55246 -0.180671
head 16.2236 -3.58266 -1.27915
rclavicle 8.94531e-015 2.78299e-014
rhumerus -18.9779 36.6041 -88.0578
rradius 134.493
rwrist -22.6225
rhand -46.3134 -62.6901
rfingers 7.12502
rthumb -19.0471 -628.223
lclavicle 8.94531e-015 2.78299e-014
lhumerus -64.2543 -9.72323 99.658
lradius 52.6801
lwrist 9.56509
lhand -1.885 9.17375
lfingers 7.12502
lthumb 23.7837 37.7217
rfemur -50.9245 -5.81451 11.8976
rtibia 70.0811
rfoot 17.9382 11.5775
rtoes 21.377
lfemur -19.8368 0.274866 -32.5612
ltibia 33.9304
lfoot -20.3208 -5.82822
ltoes 34.7916
586
root 4.88121 16.7273 -9.36109 10.6135 9.29664 8.01053
lowerback 2.11293 2.21062 -5.32125
upperback 5.20794 3.01648 -0.870208
thorax 3.98096 1.32238 2.10966
lowerneck -10.6626 -6.04447 -0.863116
upperneck 40.1445 -8.58635 -0.151813
head 16.1323 -3.59881 -1.26751
rclavicle 1.07344e-014 9.54166e-015
rhumerus -18.875 36.4988 -87.994
rradius 134.551
rwrist -22.613
rhand -46.3449 -62.7365
rfingers 7.12502
rthumb -19.0774 -628.179
lclavicle 1.07344e-014 9.54166e-015
lhumerus -64.2289 -9.75504 99.843
lradius 52.5131
lwrist 9.2045
lhand -1.32689 9.3142
lfingers 7.12502
lthumb 24.3188 37.7915
rfemur -50.7573 -5.68292 11.8368
rtibia 69.8759
rfoot 17.5086 12.2263
rtoes 20.6703
lfemur -19.9179 0.0486356 -32.3218
ltibia 33.9613
lfoot -20.5019 -5.66275
ltoes 34.8314
587
root 4.87812 16.7259 -9.33091 10.7668 9.40752 7.85986
lowerback 2.11845 2.19064 -5.19812
upperback 5.16065 2.98432 -0.796787
thorax 3.93163 1.31143 2.11558
lowerneck -10.673 -6.07019 -0.85607
upperneck 39.9611 -8.63632 -0.111438
head 16.0407 -3.61907 -1.25459
rclavicle 4.25399e-014 -4.21423e-014
rhumerus -18.7435 36.4076 -87.914
rradius 134.575
rwrist -22.5573
rhand -46.3658 -62.776
rfingers 7.12502
rthumb -19.0975 -628.142
lclavicle 4.25399e-014 -4.21423e-014
lhumerus -64.1923 -9.79428 100.002
lradius 52.3236
lwrist 8.90224
lhand -0.812058 9.46852
lfingers 7.12502
lthumb 24.8123 37.8787
rfemur -50.5381 -5.58386 11.7518
rtibia 69.6814
rfoot 16.8823 12.9102
rtoes 19.9895
lfemur -19.9943 -0.117075 -32.114
ltibia 34.0138
lfoot -20.6986 -5.58831
ltoes 34.8597
588
root 4.87321 16.7219 -9.2985 10.9264 9.54152 7.75959
lowerback 2.1133 2.15931 -5.14455
upperback 5.10286 2.93853 -0.745626
thorax 3.8767 1.29179 2.1373
lowerneck -10.6699 -6.09847 -0.829898
upperneck 39.7944 -8.69839 -0.0651769
head 15.9546 -3.64066 -1.24438
rclavicle 1.59028e-014 -4.13472e-014
rhumerus -18.6441 36.3411 -87.8691
rradius 134.587
rwrist -22.4401
rhand -46.3796 -62.7948
rfingers 7.12502
rthumb -19.1107 -628.124
lclavicle 1.59028e-014 -4.13472e-014
lhumerus -64.1604 -9.84689 100.136
lradius 52.1237
lwrist 8.68886
lhand -0.37296 9.66023
lfingers 7.12502
lthumb 25.2331 38.0118
rfemur -50.2786 -5.52678 11.6507
rtibia 69.502
rfoot 16.0458 13.6121
rtoes 19.3379
lfemur -20.0676 -0.198337 -31.9501
ltibia 34.0782
lfoot -20.9024 -5.62368
ltoes 34.8668
589
root 4.86665 16.7155 -9.2638 11.0951 9.6885 7.72084
lowerback 2.08304 2.11994 -5.16486
upperback 5.04426 2.88506 -0.723953
thorax 3.83434 1.26585 2.17064
lowerneck -10.6568 -6.12897 -0.785409
upperneck 39.6359 -8.77311 -0.00823324
head 15.8706 -3.66357 -1.23469
rclavicle 4.77083e-014 6.36111e-015
rhumerus -18.5332 36.2811 -87.834
rradius 134.57
rwrist -22.3018
rhand -46.393 -62.7789
rfingers 7.12502
rthumb -19.1236 -628.141
lclavicle 4.77083e-014 6.36111e-015
lhumerus -64.1173 -9.91827 100.235
lradius 51.9165
lwrist 8.55419
lhand -0.0192077 9.88056
lfingers 7.12502
lthumb 25.572 38.184
rfemur -49.9892 -5.52567 11.5397
rtibia 69.3422
rfoot 15.0015 14.303
rtoes 18.7385
lfemur -20.1375 -0.181989 -31.8443
ltibia 34.1474
lfoot -21.1046 -5.77712
ltoes 34.8444
590
root 4.8586 16.7074 -9.22699 11.2691 9.83647 7.73966
lowerback 2.03146 2.07898 -5.25896
upperback 4.98839 2.83227 -0.729506
thorax 3.80548 1.23773 2.21783
lowerneck -10.6435 -6.16142 -0.718637
upperneck 39.4857 -8.85973 0.0558369
head 15.7905 -3.68722 -1.22801
rclavicle 3.89618e-014 -1.98785e-014
rhumerus -18.4348 36.2196 -87.8181
rradius 134.547
rwrist -22.1646
rhand -46.402 -62.7647
rfingers 7.12502
rthumb -19.1323 -628.156
lclavicle 3.89618e-014 -1.98785e-014
lhumerus -64.0585 -10.0109 100.3
lradius 51.7006
lwrist 8.46292
lhand 0.235026 10.0814
lfingers 7.12502
lthumb 25.8155 38.3496
rfemur -49.6767 -5.58127 11.439
rtibia 69.2035
rfoot 13.7565 14.9318
rtoes 18.2049
lfemur -20.2029 -0.0628972 -31.7944
ltibia 34.2183
lfoot -21.293 -6.04214
ltoes 34.7975
591
root 4.84958 16.698 -9.1882 11.4436 9.97221 7.80926
lowerback 1.96768 2.04062 -5.40784
upperback 4.9337 2.78521 -0.766323
thorax 3.784 1.21095 2.26372
lowerneck -10.6282 -6.19394 -0.632828
upperneck 39.3413 -8.95499 0.12897
head 15.7131 -3.71062 -1.22227
rclavicle -2.90226e-014 7.15625e-015
rhumerus -18.3541 36.1572 -87.8309
rradius 134.518
rwrist -22.0459
rhand -46.4046 -62.7474
rfingers 7.12502
rthumb -19.1348 -628.174
lclavicle -2.90226e-014 7.15625e-015
lhumerus -63.9881 -10.1189 100.318
lradius 51.472
lwrist 8.37452
lhand 0.391543 10.248
lfingers 7.12502
lthumb 25.9654 38.4943
rfemur -49.3469 -5.69862 11.3667
rtibia 69.0852
rfoot 12.3452 15.4377
rtoes 17.7729
lfemur -20.2603 0.151478 -31.7968
ltibia 34.2888
lfoot -21.4631 -6.39854
ltoes 34.7359
